<svg width="1387" height="1387" viewBox="0 0 1387 1387" fill="none" xmlns="http://www.w3.org/2000/svg">
<rect width="1387" height="1387" fill="#a4c5d2"/>
<path d="M421 683.8C421 691.6 419 700.9 409.3 700.9C399.6 700.9 397.6 691.6 397.6 683.8V606.9H353.7V686.4C353.7 702.5 359.1 717 368.9 727.4C379.1 738.2 393.1 743.9 409.3 743.9C425.5 743.9 439.5 738.2 449.7 727.3C459.5 716.9 464.9 702.3 464.9 686.3V606.9H421V683.8ZM425.8 611.4H460.1V686.4C460.1 701.2 455.2 714.6 446.2 724.2C436.9 734.2 424.1 739.5 409.3 739.5C394.4 739.5 381.7 734.2 372.4 724.3C363.4 714.7 358.5 701.3 358.5 686.4V611.4H392.8V685.4C392.8 699.1 398.4 706.1 409.3 706.1C420.3 706.1 425.8 699.1 425.8 685.4V611.4Z" fill="white"/>
<path d="M542 654.8L510.6 607.6H476.4V742.1H520.1V696L551.5 742H585.7V607.6H542V654.8ZM546.8 670.4V612.1H580.9V737.6H554.3L515.3 680.6V737.6H481.2V612.1H507.8L546 669.1L546.8 670.4Z" fill="white"/>
<path d="M686.7 691.5L686.3 692C680.5 698.6 673.4 701.9 664.8 701.9C650.8 701.9 639.3 690.1 639.3 675.5C639.3 660.2 650.3 649.1 665.5 649.1C673.7 649.1 680.7 652.4 686.2 658.8L686.6 659.3L710.9 623.3L711.1 623L710.8 622.7C697.7 611.3 682.9 606 664.6 606C625.8 606 595.4 636.4 595.4 675.3C595.4 714.3 626 744.9 665 744.9C686 744.9 698.6 738.1 711.2 727.8L711.5 727.5L687 692L686.7 691.5ZM664.9 740.4C628.6 740.4 600.1 711.8 600.1 675.3C600.1 639 628.4 610.5 664.5 610.5C680.6 610.5 693.5 614.7 704.9 623.6L685.9 651.9C680.2 647 673.3 644.6 665.5 644.6C647.5 644.6 634.5 657.6 634.5 675.5C634.5 692.5 648.1 706.4 664.8 706.4C673.3 706.4 680.2 703.9 686 698.9L705.2 726.7C696.2 733.4 684.3 740.4 664.9 740.4Z" fill="white"/>
<path d="M784 655.6H762.5V607H718.6V742H762.5V691.7H784V742.1H827.9V607H784V655.6ZM788.8 611.5H823.1V737.5H788.8V687.2H757.7V737.6H723.4V611.5H757.7V660.1H788.8V611.5Z" fill="white"/>
<path d="M964.2 608.6C927.3 608.6 897.7 638.6 897.7 675.5C897.7 712.4 927.7 742.4 964.6 742.4C1001.5 742.4 1031.5 712.4 1031.5 675.5C1031.1 638.6 1001.1 608.6 964.2 608.6Z" fill="white"/>
<path d="M1106.6 608.6V644.6L1042.3 608.6V741.9H1106.6V705.9L1169.6 741.9V608.6H1106.6Z" fill="white"/>
<path d="M865.2 667.3C875.362 667.3 883.6 659.062 883.6 648.9C883.6 638.738 875.362 630.5 865.2 630.5C855.038 630.5 846.8 638.738 846.8 648.9C846.8 659.062 855.038 667.3 865.2 667.3Z" fill="white"/>
<path d="M865.2 720C875.362 720 883.6 711.762 883.6 701.6C883.6 691.438 875.362 683.2 865.2 683.2C855.038 683.2 846.8 691.438 846.8 701.6C846.8 711.762 855.038 720 865.2 720Z" fill="white"/>
<path d="M305.2 606.9L275.2 638.5L244.3 607H208V742.8H252.8L253.1 676.3L270.3 693.6L280 693.5L297.4 676.1L297.5 742.8H342.3V607L305.2 606.9ZM338.1 738.4H303.5L303.4 662.7L277.9 688.3H272.6L247.2 662.9L246.9 738.4H212.3V611.2H241.4L275.2 645.7L308.1 611.1H338V738.4H338.1Z" fill="white"/>
</svg>

