<svg width="1538" height="638" viewBox="0 0 1538 638" fill="none" xmlns="http://www.w3.org/2000/svg">
<path d="M559.786 0.157227C384.143 0.157227 243.27 143.229 243.27 319C243.27 494.771 386.238 637.843 561.881 637.843C737.524 637.843 880.491 494.771 880.491 319C878.397 143.229 735.429 0.157227 559.786 0.157227Z" fill="#fff"/>
<path d="M1237.82 0.157227V171.856L931.479 0.157227V635.747H1237.82V464.108L1538 635.747V0.157227H1237.82Z" fill="#fff"/>
<path d="M88.0339 280.133C136.52 280.133 175.825 240.799 175.825 192.277C175.825 143.756 136.52 104.422 88.0339 104.422C39.548 104.422 0.242188 143.756 0.242188 192.277C0.242188 240.799 39.548 280.133 88.0339 280.133Z" fill="#fff"/>
<path d="M88.0339 531.542C136.52 531.542 175.825 492.208 175.825 443.686C175.825 395.165 136.52 355.831 88.0339 355.831C39.548 355.831 0.242188 395.165 0.242188 443.686C0.242188 492.208 39.548 531.542 88.0339 531.542Z" fill="#fff"/>
</svg>
