<svg xmlns="http://www.w3.org/2000/svg" width="530.218" height="76.582" viewBox="0 0 530.218 76.582"><g transform="translate(-155.786 -88.026)"><path d="M273.243,130.9c0,4.308-1.122,9.443-6.467,9.443s-6.467-5.135-6.467-9.443V88.547h-24.2v43.814c0,8.857,2.98,16.893,8.391,22.629,5.613,5.951,13.317,9.1,22.278,9.1s16.653-3.158,22.277-9.135c5.411-5.75,8.391-13.772,8.391-22.59V88.547h-24.2Zm2.646-39.875H294.8v41.334c0,8.134-2.724,15.532-7.669,20.833-5.136,5.5-12.174,8.412-20.353,8.412s-15.229-2.9-20.353-8.374c-4.946-5.287-7.67-12.7-7.67-20.871V91.027h18.91V131.84c0,7.566,3.066,11.4,9.113,11.4s9.113-3.836,9.113-11.4Z" fill="#e75653"/><path d="M339.938,114.946,322.619,88.9H303.763v74.139h24.1V137.669l17.321,25.375h18.854V88.9h-24.1Zm2.646,8.562V91.385h18.8v69.179H346.734l-21.522-31.423v31.423h-18.8V91.385h14.652l21.053,31.42Z" fill="#e75653"/><path d="M419.71,135.18l-.219.249a15.019,15.019,0,0,1-11.864,5.437,14.32,14.32,0,0,1-14.044-14.549c0-8.431,6.086-14.55,14.471-14.55A14.624,14.624,0,0,1,419.49,117.1l.221.254L433.132,97.48l.123-.182-.169-.144c-7.3-6.227-15.428-9.128-25.566-9.128a38.291,38.291,0,0,0,.213,76.582c11.565,0,18.54-3.774,25.456-9.439l.176-.145L419.9,135.452Zm-11.977,26.947a35.811,35.811,0,0,1-.213-71.621c8.886,0,15.97,2.289,22.281,7.2l-10.488,15.62a16.927,16.927,0,0,0-11.259-4.041c-9.918,0-17.117,7.162-17.117,17.03A17.183,17.183,0,0,0,419.319,139.2L429.9,154.508A34.158,34.158,0,0,1,407.733,162.127Z" fill="#e75653"/><path d="M473.4,115.374H461.532V88.589h-24.2v74.455h24.2V135.259H473.4v27.785h24.2V88.589H473.4Zm2.647-24.305h18.909v69.495H476.045V132.779H458.886v27.785h-18.91V91.069h18.91v26.785h17.159Z" fill="#e75653"/><path d="M572.758,89.435a36.882,36.882,0,1,0,37.118,36.882A37.285,37.285,0,0,0,572.758,89.435Z" fill="#e75653"/><path d="M651.25,89.435v19.859L615.787,89.435v73.527H651.25V143.1L686,162.962V89.435Z" fill="#e75653"/><circle cx="10.166" cy="10.166" r="10.166" transform="translate(507.978 101.492)" fill="#e75653"/><circle cx="10.166" cy="10.166" r="10.166" transform="translate(507.978 130.572)" fill="#e75653"/><path d="M209.394,88.539l-16.573,17.39-16.995-17.37h-20.04v74.85h24.7l.168-36.656,9.51,9.516,5.371-.031,9.589-9.588.055,36.759h24.705V88.561Zm18.125,72.511H208.462L208.4,119.3l-14.087,14.083-2.938.016L177.406,119.42l-.191,41.63H158.152V90.918h16.072l18.627,19.036L211.009,90.9l16.51.018Z" fill="#e75653"/></g></svg>